<svg width="141" height="36" viewBox="0 0 141 36" fill="none" xmlns="http://www.w3.org/2000/svg">
<path d="M13.1001 35.5C12.6001 35.5 12.2001 35.3833 11.9001 35.15C11.6334 34.9167 11.4168 34.6 11.2501 34.2L0.100098 2.05C0.033431 1.85 9.76473e-05 1.66667 9.76473e-05 1.5C9.76473e-05 1.23333 0.100098 0.999999 0.300098 0.8C0.500098 0.599998 0.733431 0.499998 1.0001 0.499998H3.6001C4.0001 0.499998 4.3001 0.616665 4.5001 0.849999C4.73343 1.05 4.86676 1.23333 4.9001 1.4L14.7001 29.75L24.5001 1.4C24.5668 1.23333 24.7001 1.05 24.9001 0.849999C25.1001 0.616665 25.4001 0.499998 25.8001 0.499998H28.4001C28.6668 0.499998 28.9001 0.599998 29.1001 0.8C29.3334 0.999999 29.4501 1.23333 29.4501 1.5C29.4501 1.66667 29.4168 1.85 29.3501 2.05L18.1501 34.2C18.0168 34.6 17.8001 34.9167 17.5001 35.15C17.2334 35.3833 16.8501 35.5 16.3501 35.5H13.1001ZM36.5649 35.5C36.1983 35.5 35.9149 35.4 35.7149 35.2C35.5149 34.9667 35.4149 34.6833 35.4149 34.35V1.65C35.4149 1.31666 35.5149 1.05 35.7149 0.849999C35.9149 0.616665 36.1983 0.499998 36.5649 0.499998H39.2149C39.5483 0.499998 39.8149 0.616665 40.0149 0.849999C40.2483 1.05 40.3649 1.31666 40.3649 1.65V34.35C40.3649 34.6833 40.2483 34.9667 40.0149 35.2C39.8149 35.4 39.5483 35.5 39.2149 35.5H36.5649ZM50.2368 35.5C49.8702 35.5 49.5868 35.4 49.3868 35.2C49.1868 34.9667 49.0868 34.6833 49.0868 34.35V1.7C49.0868 1.33333 49.1868 1.05 49.3868 0.849999C49.5868 0.616665 49.8702 0.499998 50.2368 0.499998H61.5868C65.0202 0.499998 67.7868 1.01666 69.8868 2.05C71.9868 3.08333 73.5202 4.61667 74.4868 6.65C75.4535 8.65 75.9535 11.1167 75.9868 14.05C76.0202 15.55 76.0368 16.8667 76.0368 18C76.0368 19.1333 76.0202 20.4333 75.9868 21.9C75.9202 24.9667 75.4035 27.5167 74.4368 29.55C73.5035 31.55 72.0035 33.05 69.9368 34.05C67.9035 35.0167 65.2035 35.5 61.8368 35.5H50.2368ZM53.9868 31.25H61.5868C63.8868 31.25 65.7202 30.9333 67.0868 30.3C68.4535 29.6667 69.4368 28.65 70.0368 27.25C70.6702 25.85 71.0035 24 71.0368 21.7C71.1035 20.7 71.1368 19.8333 71.1368 19.1C71.1368 18.3333 71.1368 17.5833 71.1368 16.85C71.1368 16.0833 71.1035 15.2167 71.0368 14.25C70.9702 11.0167 70.2035 8.63333 68.7368 7.1C67.2702 5.53333 64.8035 4.75 61.3368 4.75H53.9868V31.25ZM84.7095 35.5C84.3428 35.5 84.0595 35.4 83.8595 35.2C83.6595 34.9667 83.5595 34.6833 83.5595 34.35V1.7C83.5595 1.33333 83.6595 1.05 83.8595 0.849999C84.0595 0.616665 84.3428 0.499998 84.7095 0.499998H105.359C105.726 0.499998 106.009 0.616665 106.209 0.849999C106.409 1.05 106.509 1.33333 106.509 1.7V3.6C106.509 3.96667 106.409 4.25 106.209 4.45C106.009 4.65 105.726 4.75 105.359 4.75H88.3595V15.7H104.259C104.626 15.7 104.909 15.8167 105.109 16.05C105.309 16.25 105.409 16.5333 105.409 16.9V18.75C105.409 19.0833 105.309 19.3667 105.109 19.6C104.909 19.8 104.626 19.9 104.259 19.9H88.3595V31.25H105.759C106.126 31.25 106.409 31.35 106.609 31.55C106.809 31.75 106.909 32.0333 106.909 32.4V34.35C106.909 34.6833 106.809 34.9667 106.609 35.2C106.409 35.4 106.126 35.5 105.759 35.5H84.7095ZM126.09 36C123.257 36 120.823 35.5167 118.79 34.55C116.757 33.55 115.19 32.0333 114.09 30C112.99 27.9333 112.373 25.35 112.24 22.25C112.207 20.7833 112.19 19.3833 112.19 18.05C112.19 16.6833 112.207 15.2667 112.24 13.8C112.373 10.7333 113.007 8.18333 114.14 6.15C115.307 4.08333 116.907 2.55 118.94 1.55C121.007 0.516665 123.39 -1.90735e-06 126.09 -1.90735e-06C128.823 -1.90735e-06 131.207 0.516665 133.24 1.55C135.307 2.55 136.923 4.08333 138.09 6.15C139.257 8.18333 139.89 10.7333 139.99 13.8C140.057 15.2667 140.09 16.6833 140.09 18.05C140.09 19.3833 140.057 20.7833 139.99 22.25C139.89 25.35 139.273 27.9333 138.14 30C137.04 32.0333 135.473 33.55 133.44 34.55C131.407 35.5167 128.957 36 126.09 36ZM126.09 31.75C128.657 31.75 130.74 30.9833 132.34 29.45C133.973 27.9167 134.857 25.4333 134.99 22C135.057 20.5 135.09 19.1667 135.09 18C135.09 16.8 135.057 15.4667 134.99 14C134.923 11.7 134.49 9.83333 133.69 8.4C132.923 6.96666 131.89 5.91667 130.59 5.25C129.29 4.58333 127.79 4.25 126.09 4.25C124.457 4.25 122.99 4.58333 121.69 5.25C120.39 5.91667 119.34 6.96666 118.54 8.4C117.773 9.83333 117.34 11.7 117.24 14C117.207 15.4667 117.19 16.8 117.19 18C117.19 19.1667 117.207 20.5 117.24 22C117.373 25.4333 118.257 27.9167 119.89 29.45C121.523 30.9833 123.59 31.75 126.09 31.75Z" fill="white"/>
</svg>
