<svg width="276" height="20" viewBox="0 0 276 20" fill="none" xmlns="http://www.w3.org/2000/svg">
<path d="M7.86495 19.2977C6.23292 19.2977 4.84396 19.0286 3.69806 18.4904C2.56953 17.9348 1.69275 17.1362 1.06772 16.0945C0.442683 15.0354 0.0954423 13.7506 0.0259942 12.2401C0.00863214 11.5282 -4.88895e-05 10.7643 -4.88895e-05 9.9483C-4.88895e-05 9.13228 0.00863214 8.35099 0.0259942 7.60442C0.0954423 6.11129 0.442683 4.84386 1.06772 3.80214C1.71011 2.74306 2.60425 1.93572 3.75015 1.38014C4.89604 0.824554 6.26764 0.546762 7.86495 0.546762C9.0282 0.546762 10.0873 0.694339 11.0422 0.989494C11.9971 1.28465 12.8218 1.71002 13.5163 2.2656C14.2108 2.82119 14.749 3.47226 15.131 4.21883C15.5129 4.9654 15.7213 5.79877 15.756 6.71896C15.756 6.87522 15.6952 7.00543 15.5737 7.10961C15.4695 7.21378 15.3393 7.26586 15.183 7.26586H12.2141C12.0058 7.26586 11.8409 7.21378 11.7193 7.10961C11.5978 7.00543 11.5023 6.83181 11.4328 6.58875C11.1724 5.56439 10.7384 4.86123 10.1307 4.47926C9.52302 4.0973 8.76777 3.90631 7.86495 3.90631C6.7885 3.90631 5.93776 4.20147 5.31273 4.79178C4.6877 5.38209 4.34914 6.36304 4.29705 7.73464C4.24497 9.15833 4.24497 10.6167 4.29705 12.1099C4.34914 13.4815 4.6877 14.4624 5.31273 15.0527C5.93776 15.643 6.7885 15.9382 7.86495 15.9382C8.76777 15.9382 9.52302 15.7472 10.1307 15.3652C10.7557 14.9659 11.1898 14.2628 11.4328 13.2558C11.5023 12.9953 11.5978 12.8217 11.7193 12.7349C11.8409 12.6307 12.0058 12.5786 12.2141 12.5786H15.183C15.3393 12.5786 15.4695 12.6307 15.5737 12.7349C15.6952 12.8391 15.756 12.9693 15.756 13.1255C15.7213 14.0457 15.5129 14.8791 15.131 15.6257C14.749 16.3722 14.2108 17.0233 13.5163 17.5789C12.8218 18.1345 11.9971 18.5599 11.0422 18.855C10.0873 19.1502 9.0282 19.2977 7.86495 19.2977ZM19.0207 19.0373C18.8471 19.0373 18.6995 18.9765 18.578 18.855C18.4565 18.7335 18.3957 18.5772 18.3957 18.3862V6.14601C18.3957 5.95503 18.4565 5.79877 18.578 5.67724C18.6995 5.55571 18.8471 5.49494 19.0207 5.49494H24.9585C26.9031 5.49494 28.3268 5.84218 29.2296 6.53666C30.1498 7.21378 30.6099 8.13397 30.6099 9.29722C30.6099 9.9917 30.4797 10.5473 30.2192 10.964C29.9588 11.3633 29.5942 11.7105 29.1254 12.0057C29.7157 12.2835 30.1758 12.7002 30.5057 13.2558C30.8529 13.794 31.0266 14.4017 31.0266 15.0788C31.0266 16.3115 30.5491 17.2838 29.5942 17.9956C28.6393 18.6901 27.2069 19.0373 25.2971 19.0373H19.0207ZM22.1459 16.4851H25.0627C25.6704 16.4851 26.1565 16.3722 26.5211 16.1465C26.9031 15.9035 27.0941 15.5302 27.0941 15.0267C27.0941 14.5058 26.9204 14.1325 26.5732 13.9068C26.226 13.6811 25.7225 13.5683 25.0627 13.5683H22.1459V16.4851ZM22.1459 10.9119H24.9585C25.5836 10.9119 26.0784 10.7817 26.443 10.5212C26.8076 10.2608 26.9899 9.88753 26.9899 9.40139C26.9899 8.89789 26.8076 8.55065 26.443 8.35967C26.0784 8.15133 25.5836 8.04716 24.9585 8.04716H22.1459V10.9119ZM42.505 19.0373C42.314 19.0373 42.1578 18.9765 42.0363 18.855C41.9147 18.7335 41.854 18.5772 41.854 18.3862V14.5579H39.484V14.4277C37.6784 14.4277 36.3155 14.0284 35.3953 13.2297C34.4751 12.4137 34.015 11.3286 34.015 9.97434C34.015 8.49857 34.4838 7.3874 35.4213 6.64083C36.3762 5.8769 37.7218 5.49494 39.458 5.49494H45.1875C45.3784 5.49494 45.5347 5.55571 45.6562 5.67724C45.7778 5.79877 45.8385 5.95503 45.8385 6.14601V18.3862C45.8385 18.5772 45.7778 18.7335 45.6562 18.855C45.5347 18.9765 45.3784 19.0373 45.1875 19.0373H42.505ZM34.1192 19.0373C33.9629 19.0373 33.8327 18.9852 33.7285 18.8811C33.6244 18.7769 33.5723 18.6554 33.5723 18.5165C33.5723 18.4644 33.5809 18.4036 33.5983 18.3342C33.633 18.2647 33.6764 18.1953 33.7285 18.1258L36.5672 13.5422L40.057 14.0891L37.4006 18.6467C37.3311 18.7508 37.2357 18.8463 37.1141 18.9331C37.0099 19.0026 36.8884 19.0373 36.7495 19.0373H34.1192ZM39.484 11.8234H41.9321V8.22946H39.6143C38.9024 8.22946 38.3729 8.35967 38.0256 8.6201C37.6784 8.88053 37.5048 9.33195 37.5048 9.97434C37.5048 10.5126 37.661 10.9553 37.9735 11.3025C38.3034 11.6498 38.8069 11.8234 39.484 11.8234ZM48.6217 19.0373C48.4654 19.0373 48.3352 18.9939 48.231 18.9071C48.1269 18.8029 48.0748 18.6814 48.0748 18.5425C48.0748 18.4383 48.1095 18.3255 48.179 18.2039L52.45 12.0317L48.7519 6.35436C48.7345 6.30227 48.7085 6.24151 48.6738 6.17206C48.6564 6.10261 48.6477 6.04184 48.6477 5.98976C48.6477 5.85086 48.6998 5.73801 48.804 5.6512C48.9082 5.54702 49.0384 5.49494 49.1946 5.49494H52.0333C52.2243 5.49494 52.3719 5.53834 52.4761 5.62515C52.5976 5.71196 52.6844 5.80745 52.7365 5.91163L55.7575 10.6254H57.1638V6.14601C57.1638 5.95503 57.2246 5.79877 57.3461 5.67724C57.4676 5.55571 57.6239 5.49494 57.8149 5.49494H60.3671C60.5407 5.49494 60.6883 5.55571 60.8098 5.67724C60.9314 5.79877 60.9921 5.95503 60.9921 6.14601V10.6254H62.3464L65.3934 5.91163C65.4628 5.80745 65.5497 5.71196 65.6538 5.62515C65.7754 5.53834 65.9316 5.49494 66.1226 5.49494H68.9352C69.0915 5.49494 69.2217 5.54702 69.3259 5.6512C69.4474 5.73801 69.5082 5.85086 69.5082 5.98976C69.5082 6.04184 69.4908 6.10261 69.4561 6.17206C69.4387 6.24151 69.4127 6.30227 69.378 6.35436L65.7059 12.0317L69.9509 18.2039C70.0204 18.3081 70.0551 18.421 70.0551 18.5425C70.0551 18.6814 70.003 18.8029 69.8988 18.9071C69.7947 18.9939 69.6645 19.0373 69.5082 19.0373H66.383C66.1573 19.0373 65.9837 18.9939 65.8622 18.9071C65.758 18.8029 65.6799 18.7074 65.6278 18.6206L62.3464 13.6985H60.9921V18.3862C60.9921 18.5772 60.9314 18.7335 60.8098 18.855C60.6883 18.9765 60.5407 19.0373 60.3671 19.0373H57.8149C57.6239 19.0373 57.4676 18.9765 57.3461 18.855C57.2246 18.7335 57.1638 18.5772 57.1638 18.3862V13.6985H55.8096L52.5021 18.6206C52.4674 18.7074 52.3892 18.8029 52.2677 18.9071C52.1462 18.9939 51.9812 19.0373 51.7729 19.0373H48.6217ZM72.8102 19.0373C72.6539 19.0373 72.515 18.9765 72.3935 18.855C72.2719 18.7335 72.2112 18.5859 72.2112 18.4123V6.14601C72.2112 5.95503 72.2719 5.79877 72.3935 5.67724C72.515 5.55571 72.6626 5.49494 72.8362 5.49494H75.4405C75.6315 5.49494 75.7878 5.55571 75.9093 5.67724C76.0308 5.79877 76.0916 5.95503 76.0916 6.14601V16.0424L75.0499 15.4434L81.8471 5.91163C81.9339 5.79009 82.0294 5.6946 82.1336 5.62515C82.2551 5.53834 82.4027 5.49494 82.5763 5.49494H84.9202C85.0938 5.49494 85.2414 5.55571 85.3629 5.67724C85.4844 5.79877 85.5452 5.93767 85.5452 6.09393V18.3862C85.5452 18.5772 85.4844 18.7335 85.3629 18.855C85.2414 18.9765 85.0851 19.0373 84.8941 19.0373H82.2898C82.1162 19.0373 81.9686 18.9765 81.8471 18.855C81.7256 18.7335 81.6648 18.5772 81.6648 18.3862V8.88053L82.7326 9.06283L75.8832 18.6206C75.8138 18.7422 75.7183 18.8463 75.5968 18.9331C75.4752 19.0026 75.3363 19.0373 75.1801 19.0373H72.8102ZM92.73 19.0373C92.5391 19.0373 92.3828 18.9765 92.2613 18.855C92.1397 18.7335 92.079 18.5772 92.079 18.3862V8.56802H87.9902C87.7992 8.56802 87.643 8.50725 87.5214 8.38572C87.3999 8.26418 87.3391 8.10792 87.3391 7.91694V6.14601C87.3391 5.95503 87.3999 5.79877 87.5214 5.67724C87.643 5.55571 87.7992 5.49494 87.9902 5.49494H99.996C100.187 5.49494 100.343 5.55571 100.465 5.67724C100.586 5.79877 100.647 5.95503 100.647 6.14601V7.91694C100.647 8.10792 100.586 8.26418 100.465 8.38572C100.343 8.50725 100.187 8.56802 99.996 8.56802H95.9073V18.3862C95.9073 18.5772 95.8465 18.7335 95.725 18.855C95.6035 18.9765 95.4559 19.0373 95.2823 19.0373H92.73ZM108.696 19.2977C106.699 19.2977 105.111 18.7422 103.93 17.631C102.767 16.5198 102.151 14.9052 102.081 12.787C102.081 12.6481 102.081 12.4658 102.081 12.2401C102.081 11.997 102.081 11.806 102.081 11.6671C102.151 10.3303 102.454 9.18437 102.993 8.22946C103.531 7.25718 104.286 6.5193 105.258 6.0158C106.231 5.49494 107.368 5.23451 108.67 5.23451C110.128 5.23451 111.344 5.53834 112.316 6.14601C113.306 6.73632 114.044 7.55234 114.53 8.59406C115.033 9.61842 115.285 10.799 115.285 12.1359V12.7349C115.285 12.9085 115.215 13.0561 115.077 13.1776C114.955 13.2992 114.807 13.3599 114.634 13.3599H106.118C106.118 13.3773 106.118 13.412 106.118 13.4641C106.118 13.4988 106.118 13.5336 106.118 13.5683C106.135 14.1239 106.239 14.636 106.43 15.1048C106.639 15.5562 106.925 15.9208 107.29 16.1986C107.672 16.4764 108.123 16.6153 108.644 16.6153C109.078 16.6153 109.434 16.5545 109.712 16.433C109.99 16.3115 110.215 16.1639 110.389 15.9903C110.58 15.8167 110.719 15.6691 110.806 15.5475C110.962 15.3739 111.083 15.2698 111.17 15.235C111.274 15.1829 111.431 15.1569 111.639 15.1569H114.347C114.521 15.1569 114.66 15.209 114.764 15.3132C114.886 15.4 114.938 15.5302 114.92 15.7038C114.903 15.9816 114.755 16.3288 114.478 16.7455C114.217 17.1449 113.827 17.5442 113.306 17.9435C112.785 18.3255 112.134 18.6467 111.352 18.9071C110.589 19.1675 109.703 19.2977 108.696 19.2977ZM106.118 10.99H111.222V10.9379C111.222 10.3129 111.118 9.77468 110.91 9.32326C110.719 8.85449 110.432 8.48989 110.05 8.22946C109.668 7.96903 109.208 7.83881 108.67 7.83881C108.132 7.83881 107.672 7.96903 107.29 8.22946C106.908 8.48989 106.613 8.85449 106.404 9.32326C106.213 9.77468 106.118 10.3129 106.118 10.9379V10.99ZM123.904 19.2977C122.637 19.2977 121.517 19.0634 120.545 18.5946C119.59 18.1258 118.834 17.4487 118.279 16.5632C117.723 15.6604 117.419 14.584 117.367 13.3339C117.35 13.0561 117.341 12.7089 117.341 12.2922C117.341 11.8581 117.35 11.5022 117.367 11.2244C117.419 9.95698 117.715 8.88053 118.253 7.99507C118.808 7.09224 119.572 6.40644 120.545 5.93767C121.517 5.4689 122.637 5.23451 123.904 5.23451C125.067 5.23451 126.057 5.39945 126.873 5.72933C127.689 6.04184 128.358 6.44117 128.878 6.9273C129.399 7.41344 129.781 7.92562 130.024 8.46384C130.285 8.98471 130.424 9.4448 130.441 9.84413C130.458 10.0177 130.398 10.174 130.259 10.3129C130.137 10.4344 129.99 10.4952 129.816 10.4952H127.029C126.856 10.4952 126.717 10.4518 126.613 10.365C126.526 10.2608 126.439 10.1219 126.352 9.9483C126.109 9.34063 125.797 8.90658 125.415 8.64615C125.033 8.38571 124.555 8.2555 123.982 8.2555C123.201 8.2555 122.585 8.50725 122.133 9.01075C121.682 9.51425 121.439 10.2955 121.404 11.3546C121.387 12.0317 121.387 12.6481 121.404 13.2037C121.456 14.2801 121.699 15.0614 122.133 15.5475C122.585 16.0337 123.201 16.2768 123.982 16.2768C124.59 16.2768 125.076 16.1465 125.441 15.8861C125.805 15.6257 126.109 15.1916 126.352 14.584C126.422 14.4103 126.508 14.2801 126.613 14.1933C126.717 14.0891 126.856 14.0371 127.029 14.0371H129.816C129.99 14.0371 130.137 14.1065 130.259 14.2454C130.398 14.3669 130.458 14.5145 130.441 14.6881C130.424 14.9833 130.337 15.3305 130.181 15.7299C130.042 16.1292 129.807 16.5372 129.477 16.9539C129.165 17.3706 128.757 17.7612 128.253 18.1258C127.75 18.4731 127.133 18.7595 126.404 18.9852C125.692 19.1936 124.859 19.2977 123.904 19.2977ZM133.62 19.0373C133.447 19.0373 133.299 18.9765 133.178 18.855C133.056 18.7335 132.995 18.5772 132.995 18.3862V6.14601C132.995 5.95503 133.056 5.79877 133.178 5.67724C133.299 5.55571 133.447 5.49494 133.62 5.49494H136.251C136.424 5.49494 136.572 5.55571 136.693 5.67724C136.815 5.79877 136.876 5.95503 136.876 6.14601V9.71391H139.48C141.233 9.71391 142.57 10.1393 143.491 10.99C144.411 11.8234 144.871 12.9693 144.871 14.4277C144.871 15.9556 144.385 17.1101 143.412 17.8914C142.44 18.6554 141.06 19.0373 139.272 19.0373H133.62ZM136.824 16.3028H139.141C139.905 16.3028 140.461 16.1639 140.808 15.8861C141.173 15.591 141.355 15.1048 141.355 14.4277C141.355 13.7679 141.181 13.2731 140.834 12.9432C140.487 12.6134 139.923 12.4484 139.141 12.4484H136.824V16.3028ZM158.925 19.2977C157.657 19.2977 156.538 19.0634 155.565 18.5946C154.61 18.1258 153.855 17.4487 153.3 16.5632C152.744 15.6604 152.44 14.584 152.388 13.3339C152.371 13.0561 152.362 12.7089 152.362 12.2922C152.362 11.8581 152.371 11.5022 152.388 11.2244C152.44 9.95698 152.735 8.88053 153.274 7.99507C153.829 7.09224 154.593 6.40644 155.565 5.93767C156.538 5.4689 157.657 5.23451 158.925 5.23451C160.088 5.23451 161.078 5.39945 161.894 5.72933C162.71 6.04184 163.378 6.44117 163.899 6.9273C164.42 7.41344 164.802 7.92562 165.045 8.46384C165.305 8.98471 165.444 9.4448 165.462 9.84413C165.479 10.0177 165.418 10.174 165.279 10.3129C165.158 10.4344 165.01 10.4952 164.837 10.4952H162.05C161.876 10.4952 161.738 10.4518 161.633 10.365C161.547 10.2608 161.46 10.1219 161.373 9.9483C161.13 9.34063 160.817 8.90658 160.435 8.64615C160.053 8.38571 159.576 8.2555 159.003 8.2555C158.222 8.2555 157.605 8.50725 157.154 9.01075C156.703 9.51425 156.46 10.2955 156.425 11.3546C156.407 12.0317 156.407 12.6481 156.425 13.2037C156.477 14.2801 156.72 15.0614 157.154 15.5475C157.605 16.0337 158.222 16.2768 159.003 16.2768C159.611 16.2768 160.097 16.1465 160.461 15.8861C160.826 15.6257 161.13 15.1916 161.373 14.584C161.442 14.4103 161.529 14.2801 161.633 14.1933C161.738 14.0891 161.876 14.0371 162.05 14.0371H164.837C165.01 14.0371 165.158 14.1065 165.279 14.2454C165.418 14.3669 165.479 14.5145 165.462 14.6881C165.444 14.9833 165.358 15.3305 165.201 15.7299C165.062 16.1292 164.828 16.5372 164.498 16.9539C164.186 17.3706 163.778 17.7612 163.274 18.1258C162.771 18.4731 162.154 18.7595 161.425 18.9852C160.713 19.1936 159.88 19.2977 158.925 19.2977Z" fill="black"/>
<path d="M174.701 19.0373C174.51 19.0373 174.354 18.9765 174.233 18.855C174.111 18.7335 174.05 18.5772 174.05 18.3862V1.45827C174.05 1.26729 174.111 1.11103 174.233 0.989494C174.354 0.867959 174.51 0.807192 174.701 0.807192H177.592C177.783 0.807192 177.939 0.867959 178.061 0.989494C178.182 1.11103 178.243 1.26729 178.243 1.45827V15.5475H186.316C186.507 15.5475 186.664 15.6083 186.785 15.7299C186.907 15.8514 186.968 16.0076 186.968 16.1986V18.3862C186.968 18.5772 186.907 18.7335 186.785 18.855C186.664 18.9765 186.507 19.0373 186.316 19.0373H174.701ZM189.699 19.0373C189.526 19.0373 189.378 18.9765 189.257 18.855C189.135 18.7335 189.074 18.5772 189.074 18.3862V6.14601C189.074 5.95503 189.135 5.79877 189.257 5.67724C189.378 5.55571 189.526 5.49494 189.699 5.49494H192.304C192.495 5.49494 192.651 5.55571 192.772 5.67724C192.894 5.79877 192.955 5.95503 192.955 6.14601V18.3862C192.955 18.5772 192.894 18.7335 192.772 18.855C192.651 18.9765 192.495 19.0373 192.304 19.0373H189.699ZM189.621 3.4115C189.447 3.4115 189.3 3.35073 189.178 3.22919C189.057 3.10766 188.996 2.9514 188.996 2.76042V0.676977C188.996 0.485995 189.057 0.329737 189.178 0.208202C189.3 0.0693067 189.447 -0.000141019 189.621 -0.000141019H192.356C192.547 -0.000141019 192.703 0.0693067 192.824 0.208202C192.963 0.329737 193.033 0.485995 193.033 0.676977V2.76042C193.033 2.9514 192.963 3.10766 192.824 3.22919C192.703 3.35073 192.547 3.4115 192.356 3.4115H189.621ZM201.013 19.0373C200.752 19.0373 200.553 18.9765 200.414 18.855C200.292 18.7161 200.188 18.5599 200.101 18.3862L195.205 6.30227C195.17 6.23282 195.153 6.1547 195.153 6.06789C195.153 5.91163 195.205 5.78141 195.309 5.67724C195.431 5.55571 195.57 5.49494 195.726 5.49494H198.252C198.478 5.49494 198.643 5.55571 198.747 5.67724C198.868 5.79877 198.947 5.91163 198.981 6.0158L202.185 14.61L205.388 6.0158C205.44 5.91163 205.518 5.79877 205.622 5.67724C205.744 5.55571 205.909 5.49494 206.117 5.49494H208.643C208.8 5.49494 208.93 5.55571 209.034 5.67724C209.155 5.78141 209.216 5.91163 209.216 6.06789C209.216 6.1547 209.208 6.23282 209.19 6.30227L204.268 18.3862C204.199 18.5599 204.094 18.7161 203.956 18.855C203.817 18.9765 203.617 19.0373 203.357 19.0373H201.013ZM216.963 19.2977C214.966 19.2977 213.378 18.7422 212.197 17.631C211.034 16.5198 210.417 14.9052 210.348 12.787C210.348 12.6481 210.348 12.4658 210.348 12.2401C210.348 11.997 210.348 11.806 210.348 11.6671C210.417 10.3303 210.721 9.18437 211.259 8.22946C211.798 7.25718 212.553 6.5193 213.525 6.0158C214.497 5.49494 215.635 5.23451 216.937 5.23451C218.395 5.23451 219.611 5.53834 220.583 6.14601C221.572 6.73632 222.31 7.55234 222.796 8.59406C223.3 9.61842 223.552 10.799 223.552 12.1359V12.7349C223.552 12.9085 223.482 13.0561 223.343 13.1776C223.222 13.2992 223.074 13.3599 222.901 13.3599H214.385C214.385 13.3773 214.385 13.412 214.385 13.4641C214.385 13.4988 214.385 13.5336 214.385 13.5683C214.402 14.1239 214.506 14.636 214.697 15.1048C214.905 15.5562 215.192 15.9208 215.557 16.1986C215.938 16.4764 216.39 16.6153 216.911 16.6153C217.345 16.6153 217.701 16.5545 217.979 16.433C218.256 16.3115 218.482 16.1639 218.656 15.9903C218.847 15.8167 218.986 15.6691 219.072 15.5475C219.229 15.3739 219.35 15.2698 219.437 15.235C219.541 15.1829 219.697 15.1569 219.906 15.1569H222.614C222.788 15.1569 222.927 15.209 223.031 15.3132C223.152 15.4 223.204 15.5302 223.187 15.7038C223.17 15.9816 223.022 16.3288 222.744 16.7455C222.484 17.1449 222.093 17.5442 221.572 17.9435C221.052 18.3255 220.401 18.6467 219.619 18.9071C218.855 19.1675 217.97 19.2977 216.963 19.2977ZM214.385 10.99H219.489V10.9379C219.489 10.3129 219.385 9.77468 219.176 9.32326C218.986 8.85449 218.699 8.48989 218.317 8.22946C217.935 7.96903 217.475 7.83881 216.937 7.83881C216.399 7.83881 215.938 7.96903 215.557 8.22946C215.175 8.48989 214.879 8.85449 214.671 9.32326C214.48 9.77468 214.385 10.3129 214.385 10.9379V10.99ZM233.76 19.2977C232.128 19.2977 230.73 19.0286 229.567 18.4904C228.421 17.9348 227.527 17.1362 226.884 16.0945C226.259 15.0354 225.921 13.7593 225.869 12.2661C225.851 11.5196 225.842 10.7209 225.842 9.87017C225.842 9.01943 225.851 8.21209 225.869 7.44817C225.921 5.98976 226.259 4.74837 226.884 3.72401C227.527 2.69965 228.429 1.91836 229.593 1.38014C230.773 0.824554 232.162 0.546762 233.76 0.546762C235.044 0.546762 236.173 0.711701 237.145 1.04158C238.117 1.37146 238.933 1.80551 239.593 2.34373C240.253 2.86459 240.756 3.43754 241.104 4.06257C241.451 4.6876 241.633 5.28659 241.651 5.85954C241.651 6.0158 241.599 6.1547 241.494 6.27623C241.39 6.3804 241.251 6.43249 241.078 6.43249H237.848C237.675 6.43249 237.536 6.39776 237.432 6.32832C237.345 6.25887 237.267 6.1547 237.197 6.0158C237.076 5.70328 236.876 5.39077 236.598 5.07825C236.338 4.74837 235.982 4.47058 235.53 4.24487C235.079 4.01917 234.489 3.90631 233.76 3.90631C232.666 3.90631 231.798 4.19279 231.155 4.76573C230.53 5.33868 230.192 6.27623 230.14 7.57838C230.088 9.07152 230.088 10.5907 230.14 12.1359C230.192 13.4901 230.539 14.4624 231.181 15.0527C231.841 15.643 232.718 15.9382 233.812 15.9382C234.523 15.9382 235.157 15.8167 235.713 15.5736C236.286 15.3132 236.737 14.9138 237.067 14.3756C237.397 13.8374 237.562 13.1516 237.562 12.3182V11.6671H234.723C234.55 11.6671 234.402 11.6064 234.28 11.4848C234.159 11.3459 234.098 11.1897 234.098 11.0161V9.34931C234.098 9.15833 234.159 9.00207 234.28 8.88053C234.402 8.759 234.55 8.69823 234.723 8.69823H241.104C241.295 8.69823 241.451 8.759 241.572 8.88053C241.694 9.00207 241.755 9.15833 241.755 9.34931V12.188C241.755 13.6811 241.425 14.9572 240.765 16.0163C240.123 17.0754 239.194 17.8914 237.979 18.4644C236.781 19.02 235.374 19.2977 233.76 19.2977ZM245.27 19.0373C245.096 19.0373 244.948 18.9765 244.827 18.855C244.705 18.7335 244.645 18.5772 244.645 18.3862V6.14601C244.645 5.97239 244.705 5.82482 244.827 5.70328C244.948 5.56439 245.096 5.49494 245.27 5.49494H247.822C247.995 5.49494 248.143 5.56439 248.265 5.70328C248.403 5.82482 248.473 5.97239 248.473 6.14601V7.18774C248.907 6.64951 249.436 6.23282 250.061 5.93767C250.704 5.64252 251.442 5.49494 252.275 5.49494H253.395C253.569 5.49494 253.716 5.55571 253.838 5.67724C253.959 5.79877 254.02 5.95503 254.02 6.14601V8.38572C254.02 8.5767 253.959 8.73296 253.838 8.85449C253.716 8.97602 253.569 9.03679 253.395 9.03679H251.103C250.339 9.03679 249.74 9.25382 249.306 9.68787C248.872 10.1046 248.655 10.7035 248.655 11.4848V18.3862C248.655 18.5772 248.594 18.7335 248.473 18.855C248.351 18.9765 248.195 19.0373 248.004 19.0373H245.27ZM256.587 19.0373C256.413 19.0373 256.266 18.9765 256.144 18.855C256.023 18.7335 255.962 18.5772 255.962 18.3862V6.14601C255.962 5.95503 256.023 5.79877 256.144 5.67724C256.266 5.55571 256.413 5.49494 256.587 5.49494H259.191C259.382 5.49494 259.539 5.55571 259.66 5.67724C259.782 5.79877 259.842 5.95503 259.842 6.14601V18.3862C259.842 18.5772 259.782 18.7335 259.66 18.855C259.539 18.9765 259.382 19.0373 259.191 19.0373H256.587ZM256.509 3.4115C256.335 3.4115 256.188 3.35073 256.066 3.22919C255.945 3.10766 255.884 2.9514 255.884 2.76042V0.676977C255.884 0.485995 255.945 0.329737 256.066 0.208202C256.188 0.0693067 256.335 -0.000141019 256.509 -0.000141019H259.243C259.434 -0.000141019 259.591 0.0693067 259.712 0.208202C259.851 0.329737 259.921 0.485995 259.921 0.676977V2.76042C259.921 2.9514 259.851 3.10766 259.712 3.22919C259.591 3.35073 259.434 3.4115 259.243 3.4115H256.509ZM268.135 19.2977C267.267 19.2977 266.494 19.1589 265.817 18.8811C265.14 18.5859 264.567 18.1692 264.098 17.631C263.63 17.0754 263.274 16.4243 263.031 15.6778C262.787 14.9138 262.64 14.0718 262.588 13.1516C262.57 12.8217 262.562 12.5266 262.562 12.2661C262.562 11.9883 262.57 11.6932 262.588 11.3807C262.623 10.4778 262.761 9.65314 263.004 8.90658C263.265 8.16001 263.621 7.51761 264.072 6.97939C264.541 6.42381 265.114 5.99844 265.791 5.70328C266.486 5.39077 267.267 5.23451 268.135 5.23451C269.038 5.23451 269.81 5.39077 270.453 5.70328C271.095 5.99844 271.625 6.38908 272.041 6.87522V1.19784C272.041 1.00686 272.102 0.850597 272.224 0.729064C272.345 0.607529 272.501 0.546762 272.692 0.546762H275.375C275.549 0.546762 275.696 0.607529 275.818 0.729064C275.939 0.850597 276 1.00686 276 1.19784V18.3862C276 18.5772 275.939 18.7335 275.818 18.855C275.696 18.9765 275.549 19.0373 275.375 19.0373H272.875C272.701 19.0373 272.554 18.9765 272.432 18.855C272.311 18.7335 272.25 18.5772 272.25 18.3862V17.5008C271.816 18.0216 271.269 18.4557 270.609 18.8029C269.949 19.1328 269.125 19.2977 268.135 19.2977ZM269.333 16.1726C269.975 16.1726 270.488 16.025 270.869 15.7299C271.269 15.4347 271.555 15.0614 271.729 14.61C271.92 14.1586 272.024 13.6725 272.041 13.1516C272.076 12.8217 272.093 12.4918 272.093 12.162C272.093 11.8321 272.076 11.5109 272.041 11.1984C272.024 10.7122 271.92 10.2608 271.729 9.84413C271.538 9.41007 271.243 9.05415 270.843 8.77636C270.461 8.49857 269.958 8.35967 269.333 8.35967C268.673 8.35967 268.152 8.50725 267.77 8.8024C267.388 9.0802 267.111 9.45348 266.937 9.92225C266.781 10.391 266.685 10.9032 266.65 11.4588C266.598 11.997 266.598 12.5352 266.65 13.0735C266.685 13.629 266.781 14.1412 266.937 14.61C267.111 15.0788 267.388 15.4607 267.77 15.7559C268.152 16.0337 268.673 16.1726 269.333 16.1726Z" fill="#3CA4F4"/>
</svg>
