<svg width="12" height="12" viewBox="0 0 12 12" fill="none" xmlns="http://www.w3.org/2000/svg">
<path d="M0.500041 4.99941C0.367422 4.99941 0.240234 4.94672 0.146459 4.85295C0.0526828 4.75917 0 4.63199 0 4.49937V0.500041C0 0.367422 0.0526828 0.240234 0.146459 0.146459C0.240234 0.0526828 0.367422 0 0.500041 0H4.50037C4.63299 0 4.76017 0.0526828 4.85395 0.146459C4.94772 0.240234 5.00041 0.367422 5.00041 0.500041V4.49937C5.00041 4.63199 4.94772 4.75917 4.85395 4.85295C4.76017 4.94672 4.63299 4.99941 4.50037 4.99941H0.500041ZM7.50061 4.99941C7.36799 4.99941 7.2408 4.94672 7.14703 4.85295C7.05325 4.75917 7.00057 4.63199 7.00057 4.49937V0.500041C7.00057 0.367422 7.05325 0.240234 7.14703 0.146459C7.2408 0.0526828 7.36799 0 7.50061 0H11.4999C11.6326 0 11.7597 0.0526828 11.8535 0.146459C11.9473 0.240234 12 0.367422 12 0.500041V4.49937C12 4.63199 11.9473 4.75917 11.8535 4.85295C11.7597 4.94672 11.6326 4.99941 11.4999 4.99941H7.50061ZM0.500041 12C0.367422 12 0.240234 11.9473 0.146459 11.8535C0.0526828 11.7597 0 11.6326 0 11.4999V7.49961C0 7.36699 0.0526828 7.2398 0.146459 7.14603C0.240234 7.05225 0.367422 6.99957 0.500041 6.99957H4.50037C4.63299 6.99957 4.76017 7.05225 4.85395 7.14603C4.94772 7.2398 5.00041 7.36699 5.00041 7.49961V11.4999C5.00041 11.6326 4.94772 11.7597 4.85395 11.8535C4.76017 11.9473 4.63299 12 4.50037 12H0.500041ZM7.50061 12C7.36799 12 7.2408 11.9473 7.14703 11.8535C7.05325 11.7597 7.00057 11.6326 7.00057 11.4999V7.49961C7.00057 7.36699 7.05325 7.2398 7.14703 7.14603C7.2408 7.05225 7.36799 6.99957 7.50061 6.99957H11.4999C11.6326 6.99957 11.7597 7.05225 11.8535 7.14603C11.9473 7.2398 12 7.36699 12 7.49961V11.4999C12 11.6326 11.9473 11.7597 11.8535 11.8535C11.7597 11.9473 11.6326 12 11.4999 12H7.50061Z" fill="white"/>
</svg>
