<svg width="23" height="23" viewBox="0 0 23 23" fill="none" xmlns="http://www.w3.org/2000/svg">
<path fill-rule="evenodd" clip-rule="evenodd" d="M2.72174 2.61337C1.85884 3.47921 1.17435 4.50712 0.707356 5.63839C0.24036 6.76967 1.28582e-08 7.98217 0 9.20665C-1.28582e-08 10.4311 0.24036 11.6436 0.707356 12.7749C1.17435 13.9062 1.85884 14.9341 2.72174 15.7999C3.58463 16.6658 4.60904 17.3526 5.73647 17.8212C6.8639 18.2898 8.07227 18.531 9.29259 18.531C10.5129 18.531 11.7213 18.2898 12.8487 17.8212C13.9761 17.3526 15.0006 16.6658 15.8634 15.7999C17.5559 14.0416 18.4925 11.6866 18.4713 9.24207C18.4501 6.79759 17.473 4.45924 15.7503 2.73067C14.0276 1.00209 11.6972 0.0215943 9.26101 0.000352437C6.82485 -0.0208894 4.47783 0.918825 2.72545 2.6171M14.5515 14.4835C13.8641 15.1888 13.0441 15.7502 12.1389 16.1352C11.2338 16.5203 10.2615 16.7214 9.27842 16.7268C8.29531 16.7322 7.32089 16.5419 6.41158 16.1669C5.50227 15.7919 4.67614 15.2395 3.98103 14.5419C3.28591 13.8443 2.73562 13.0153 2.36202 12.1028C1.98842 11.1903 1.79892 10.2125 1.80451 9.22607C1.8101 8.2396 2.01066 7.26405 2.39457 6.35589C2.77849 5.44773 3.33814 4.62502 4.04111 3.93538C5.44042 2.56262 7.3228 1.79896 9.27974 1.81012C11.2367 1.82128 13.1103 2.60637 14.4939 3.995C15.8776 5.38363 16.6597 7.26377 16.6705 9.22739C16.6812 11.191 15.9198 13.0797 14.5515 14.4835Z" fill="#727272"/>
<path d="M14.5479 17.1555C14.1995 16.8056 14.0038 16.3312 14.004 15.8366C14.0042 15.3419 14.2002 14.8676 14.5489 14.518C14.8975 14.1684 15.3704 13.9721 15.8633 13.9722C16.3563 13.9724 16.8289 14.1691 17.1774 14.5189L22.4326 19.7939C22.6101 19.9659 22.7516 20.1717 22.849 20.3992C22.9464 20.6267 22.9977 20.8714 22.9998 21.1189C23.002 21.3665 22.9549 21.6121 22.8615 21.8412C22.7681 22.0704 22.6301 22.2785 22.4556 22.4536C22.2811 22.6287 22.0737 22.7672 21.8453 22.8609C21.6169 22.9547 21.3722 23.0018 21.1255 22.9997C20.8787 22.9975 20.6349 22.9461 20.4082 22.8484C20.1814 22.7507 19.9764 22.6086 19.805 22.4305L14.5479 17.1555Z" fill="#727272"/>
</svg>
